<svg width="18" height="18" viewBox="0 0 18 18" fill="none" xmlns="http://www.w3.org/2000/svg">
<path fill-rule="evenodd" clip-rule="evenodd" d="M7.5 2.25C7.08579 2.25 6.75 2.58579 6.75 3H5.25C5.25 1.75736 6.25736 0.75 7.5 0.75H13.5C14.7426 0.75 15.75 1.75736 15.75 3V12C15.75 13.2426 14.7426 14.25 13.5 14.25V12.75C13.9142 12.75 14.25 12.4142 14.25 12V3C14.25 2.58579 13.9142 2.25 13.5 2.25H7.5ZM11.25 3.75C12.0784 3.75 12.75 4.42157 12.75 5.25V15.75C12.75 16.5784 12.0784 17.25 11.25 17.25H3.75C2.92157 17.25 2.25 16.5784 2.25 15.75V5.25C2.25 4.42157 2.92157 3.75 3.75 3.75H11.25ZM3.75 5.25V15.75H11.25V5.25H3.75Z" fill="#5C5768"/>
</svg>
