<svg width="66" height="25" viewBox="0 0 66 25" fill="none" xmlns="http://www.w3.org/2000/svg">
<g clip-path="url(#clip0_2_6475)">
<path d="M65.0756 4.08511C64.7777 4.04255 64.4798 4 64.1818 4C63.5434 4 63.0753 4.12768 62.7773 4.34048C62.4794 4.59585 62.3092 4.97889 62.3092 5.53219V14.0444C62.3092 15.1084 62.0112 15.8745 61.4154 16.3852C60.8195 16.896 60.0109 17.1514 58.9894 17.1514C58.2233 17.1514 57.5423 17.0662 56.9465 16.8534C56.3506 16.6406 55.8399 16.4278 55.4143 16.215V14.5551C55.4143 14.4274 55.4143 14.3423 55.4143 14.2146V4.29792C55.2866 4.25536 55.0738 4.17024 54.8184 4.12768H54.7759C54.5205 4.08512 54.2226 4.04255 53.8821 4.04255C53.2437 4.04255 52.7755 4.17024 52.4776 4.38305C52.1796 4.63841 52.0094 5.02146 52.0094 5.57475V14.087C52.0094 15.151 51.7115 15.9171 51.1156 16.4278C50.5198 16.9385 49.7111 17.1939 48.6896 17.1939C47.9235 17.1939 47.2426 17.1088 46.6467 16.896C46.0509 16.6832 45.5401 16.4704 45.1145 16.2576V8.46891C45.1145 8.46891 45.1145 8.46891 45.072 8.46891V8.42634C44.9017 8.34122 44.6889 8.29866 44.4335 8.2561C44.1356 8.21354 43.8377 8.17097 43.5398 8.17097C42.9013 8.17097 42.4332 8.29865 42.1352 8.51146C41.8373 8.76682 41.6671 9.14988 41.6671 9.70317V14.0444C41.6671 15.1084 41.3691 15.8745 40.7733 16.3852C40.1774 16.896 38.3473 16.8534 38.3473 16.8534L28.9839 16.8109C28.3455 16.8109 27.8773 16.6832 27.5794 16.3852C27.2814 16.0873 27.0261 15.6617 26.8133 15.0233L22.77 4.08511C22.5997 4.08511 22.3869 4.08512 22.089 4.12768C21.7911 4.17024 21.4932 4.25536 21.1952 4.38305C20.5994 4.59585 20.2163 4.89378 20.0035 5.1917C19.7907 5.53219 19.7907 5.9578 20.0035 6.46853L22.8551 14.0444C22.8551 14.0444 22.8551 14.0444 22.8551 14.087C23.2807 15.2361 22.3869 16.4278 21.1527 16.4278H14.8536C14.7685 16.5981 14.726 16.8109 14.6834 17.0662C14.6408 17.3216 14.5983 17.6195 14.5983 17.96C14.5983 18.5984 14.726 19.0666 14.9388 19.3645C15.1941 19.6624 15.5772 19.8327 16.1305 19.8327H22.4721C24.3022 19.8327 25.3236 18.7261 25.7067 18.0877C26.1749 18.8112 26.643 19.2794 27.1538 19.5773C27.6219 19.8327 28.3455 19.9178 28.9413 19.9178C28.9413 19.9178 38.7729 19.8753 38.9432 19.8753C40.6882 19.7901 42.0501 19.3645 43.1141 18.5559C43.71 18.8963 44.4335 19.1943 45.3273 19.4496C46.3062 19.7476 47.4128 19.9178 48.6471 19.9178C50.69 19.9178 52.3073 19.4496 53.499 18.5984C54.0523 18.8964 54.7759 19.1943 55.6271 19.4922C56.606 19.7901 57.7126 19.9604 58.9468 19.9604C61.0323 19.9604 62.6922 19.4922 63.8839 18.5559C65.0756 17.6195 65.6715 16.1724 65.6715 14.2572V4.34048C65.5864 4.2128 65.3736 4.12768 65.0756 4.08511Z" fill="#FBB600"/>
<path d="M14.8112 11.8312C14.8112 10.6395 14.641 9.57549 14.2579 8.63915C13.9175 7.70281 13.4067 6.89414 12.7683 6.21316C12.1299 5.53219 11.3212 5.02146 10.4274 4.63841C9.49111 4.25537 8.5122 4.08511 7.40561 4.08511C6.29903 4.08511 5.27756 4.25537 4.38378 4.63841C3.44744 5.02146 2.68134 5.53219 2.04292 6.1706C1.40451 6.85158 0.893776 7.66024 0.553288 8.59658C0.2128 9.57549 0 10.6395 0 11.8312C0 13.0229 0.170239 14.087 0.553288 15.0659C0.893776 16.0448 1.40451 16.8534 2.04292 17.4918C2.68134 18.1728 3.44744 18.6835 4.38378 19.024C5.27756 19.3645 6.25647 19.5348 7.3205 19.5773L5.83086 21.3223C5.53294 21.7479 5.40525 22.131 5.49037 22.4715C5.57549 22.812 5.87342 23.1525 6.29903 23.5355C6.55439 23.7057 6.7672 23.876 7.02257 24.0037C7.27793 24.1314 7.44818 24.2165 7.61842 24.259L13.4493 16.8109C13.7898 16.3001 14.1303 15.7468 14.3431 15.1084C14.641 14.087 14.8112 12.9804 14.8112 11.8312ZM10.3849 15.5766C9.66135 16.4704 8.68244 16.896 7.36305 16.896C6.08622 16.896 5.06477 16.4704 4.34123 15.5766C3.61769 14.6828 3.2772 13.4485 3.2772 11.7887C3.2772 10.1713 3.66024 8.89451 4.38378 8.00073C5.10732 7.10695 6.08622 6.63877 7.36305 6.63877C8.63988 6.63877 9.61878 7.10695 10.3423 8.00073C11.0659 8.89451 11.4063 10.1713 11.4063 11.7887C11.4489 13.4485 11.1084 14.6828 10.3849 15.5766Z" fill="#FBB600"/>
<path d="M42.4761 6.68136L42.9869 7.1921C43.1146 7.31978 43.2848 7.36234 43.455 7.36234C43.6253 7.36234 43.7955 7.31978 43.9232 7.1921L44.4339 6.68136L44.9447 6.17062C45.0724 6.04294 45.1149 5.87271 45.1149 5.70246C45.1149 5.53222 45.0724 5.36197 44.9447 5.23429L44.4339 4.72355L43.9232 4.21283C43.7955 4.08514 43.6253 4.04257 43.455 4.04257C43.2848 4.04257 43.1146 4.08514 42.9869 4.21283L42.4761 4.72355L41.9654 5.23429C41.8377 5.36197 41.7952 5.53222 41.7952 5.70246C41.7952 5.87271 41.8377 6.04294 41.9654 6.17062L42.4761 6.68136Z" fill="#FBB600"/>
<path d="M54.1804 21.3649L53.6697 20.8542C53.542 20.7265 53.3717 20.6839 53.2015 20.6839C53.0312 20.6839 52.861 20.7265 52.7333 20.8542L52.2226 21.3649L51.7118 21.8756C51.6693 21.9182 51.6693 21.9608 51.6267 22.0033C51.5842 21.9608 51.5842 21.9182 51.5416 21.8756L51.0309 21.3649L50.5201 20.8542C50.3925 20.7265 50.2222 20.6839 50.052 20.6839C49.8817 20.6839 49.7115 20.7265 49.5838 20.8542L49.0731 21.3649L48.5623 21.8756C48.4346 22.0033 48.3921 22.1736 48.3921 22.3438C48.3921 22.5141 48.4346 22.6843 48.5623 22.812L49.0731 23.3227L49.5838 23.8334C49.7115 23.9611 49.8817 24.0037 50.052 24.0037C50.2222 24.0037 50.3925 23.9611 50.5201 23.8334L51.0309 23.3227L51.5416 22.812C51.5842 22.7694 51.5842 22.7269 51.6267 22.6843C51.6693 22.7269 51.6693 22.7694 51.7118 22.812L52.2226 23.3227L52.7333 23.8334C52.861 23.9611 53.0312 24.0037 53.2015 24.0037C53.3717 24.0037 53.542 23.9611 53.6697 23.8334L54.1804 23.3227L54.6911 22.812C54.8188 22.6843 54.8614 22.5141 54.8614 22.3438C54.8614 22.1736 54.8188 22.0033 54.6911 21.8756L54.1804 21.3649Z" fill="#FBB600"/>
<path d="M64.9908 21.3649L64.4801 20.8542C64.3524 20.7265 64.1821 20.6839 64.0119 20.6839C63.8416 20.6839 63.6714 20.7265 63.5437 20.8542L63.033 21.3649L62.5222 21.8756C62.4797 21.9182 62.4797 21.9608 62.4371 22.0033C62.3946 21.9608 62.3946 21.9182 62.352 21.8756L61.8413 21.3649L61.3305 20.8542C61.2029 20.7265 61.0326 20.6839 60.8624 20.6839C60.6921 20.6839 60.5219 20.7265 60.3942 20.8542L59.8835 21.3649L59.3727 21.8756C59.3302 21.9182 59.3302 21.9608 59.2876 22.0033C59.245 21.9608 59.2451 21.9182 59.2025 21.8756L58.6918 21.3649L58.181 20.8542C58.0533 20.7265 57.8831 20.6839 57.7129 20.6839C57.5426 20.6839 57.3724 20.7265 57.2447 20.8542L56.7339 21.3649L56.2232 21.8756C56.0955 22.0033 56.053 22.1736 56.053 22.3438C56.053 22.5141 56.0955 22.6843 56.2232 22.812L56.7339 23.3227L57.2447 23.8334C57.3724 23.9611 57.5426 24.0037 57.7129 24.0037C57.8831 24.0037 58.0533 23.9611 58.181 23.8334L58.6918 23.3227L59.2025 22.812C59.2451 22.7694 59.245 22.7269 59.2876 22.6843C59.3302 22.7269 59.3302 22.7694 59.3727 22.812L59.8835 23.3227L60.3942 23.8334C60.5219 23.9611 60.6921 24.0037 60.8624 24.0037C61.0326 24.0037 61.2029 23.9611 61.3305 23.8334L61.8413 23.3227L62.352 22.812C62.3946 22.7694 62.3946 22.7269 62.4371 22.6843C62.4797 22.7269 62.4797 22.7694 62.5222 22.812L63.033 23.3227L63.5437 23.8334C63.6714 23.9611 63.8416 24.0037 64.0119 24.0037C64.1821 24.0037 64.3524 23.9611 64.4801 23.8334L64.9908 23.3227L65.5015 22.812C65.6292 22.6843 65.6718 22.5141 65.6718 22.3438C65.6718 22.1736 65.6292 22.0033 65.5015 21.8756L64.9908 21.3649Z" fill="#FBB600"/>
</g>
<defs>
<clipPath id="clip0_2_6475">
<rect width="65.6717" height="20.2985" fill="white" transform="translate(0 4)"/>
</clipPath>
</defs>
</svg>
