<svg width="14" height="14" viewBox="0 0 14 14" fill="none" xmlns="http://www.w3.org/2000/svg">
<path fill-rule="evenodd" clip-rule="evenodd" d="M3.05725 1.74205L3.82137 1L4.60017 1.74912L3.82504 2.49117L3.05725 1.74205ZM6.28635 4.22259C6.28635 4.8445 6.12716 5.33331 5.80878 5.68902C5.60795 5.91046 5.34713 6.07889 5.0263 6.19432C4.72016 6.30269 4.35892 6.35687 3.94258 6.35687H3.38786C2.96661 6.35687 2.58701 6.28266 2.24903 6.13425C1.86452 5.96464 1.56452 5.71847 1.34899 5.39574C1.11633 5.03767 1 4.62189 1 4.14839C1 4.08949 1.00122 4.0306 1.00367 3.97171C1.03306 3.42283 1.20817 2.81388 1.529 2.14485L2.62374 2.62895C2.36659 3.16135 2.22699 3.62895 2.20495 4.03178C2.2025 4.07183 2.20128 4.11187 2.20128 4.15192C2.20128 4.40398 2.25638 4.61011 2.36659 4.7703C2.47435 4.9352 2.64089 5.05298 2.8662 5.12365C2.95192 5.15192 3.04499 5.17194 3.1454 5.18372C3.22377 5.19315 3.30459 5.19786 3.38786 5.19786H3.94258C4.40056 5.19786 4.71159 5.11659 4.87568 4.95404C5.01528 4.81505 5.08507 4.57124 5.08507 4.22259V2.02118H6.28635V4.22259ZM11 6.70671L11.72 7.40636L12.4437 6.70671L11.709 6L11 6.70671ZM10.1574 8.28271C9.83657 7.90344 9.40554 7.71381 8.86429 7.71381C8.2961 7.71381 7.86384 7.92111 7.5675 8.33571C7.32259 8.67494 7.20013 9.08836 7.20013 9.576C7.20013 10.0895 7.38381 10.4829 7.75118 10.7562C8.05732 10.9824 8.42835 11.0954 8.86429 11.0954H9.3786C9.3786 11.2957 9.25369 11.4617 9.00389 11.5937C8.6953 11.7586 8.23488 11.841 7.6226 11.841V13C7.95078 13 8.25569 12.9776 8.53733 12.9329C8.8949 12.8787 9.20716 12.7904 9.47411 12.6679C10.1574 12.3522 10.5297 11.8281 10.5909 11.0954L11.2183 11.0954C11.909 11.0954 12.4073 10.8928 12.7135 10.4876C12.9045 10.2332 13 9.94579 13 9.62541V8.05103L11.7987 8.40986C11.8156 8.4809 11.8034 9.28196 11.7997 9.52501L11.7987 9.59361C11.7987 9.7114 11.7522 9.79738 11.6591 9.85156C11.5685 9.9081 11.413 9.93637 11.1926 9.93637H10.7819V9.93995H10.6019V9.576C10.6019 9.06009 10.4537 8.629 10.1574 8.28271ZM9.39696 9.576V9.93995H8.86429C8.72224 9.93995 8.60468 9.91286 8.51162 9.85868C8.40141 9.79508 8.34263 9.70085 8.33529 9.576C8.33284 9.55244 8.33161 9.53006 8.33161 9.50886C8.33161 9.32511 8.37692 9.17553 8.46754 9.0601C8.5655 8.93524 8.69775 8.87282 8.86429 8.87282C9.02838 8.87282 9.15818 8.93524 9.25369 9.0601C9.34921 9.18731 9.39696 9.35927 9.39696 9.576ZM9.5 6.70671L10.22 7.40636L10.9437 6.70671L10.209 6L9.5 6.70671ZM2.80553 11.5952L2.83618 11.5954C3.2693 11.5866 3.58146 11.4895 3.77264 11.3056C3.79713 11.3174 3.83754 11.3398 3.89387 11.3728L3.96734 11.4117L4.04816 11.4541C4.18286 11.5271 4.30899 11.5872 4.42655 11.6343C4.77187 11.7803 5.0976 11.8534 5.40373 11.8534C5.44782 11.8534 5.4821 11.8522 5.50659 11.8498C5.6315 11.8428 5.75518 11.8157 5.87763 11.7685C6.02947 11.7097 6.16172 11.6248 6.27438 11.5141C6.57317 11.2291 6.72256 10.8004 6.72256 10.2279C6.72256 10.0559 6.69807 9.87455 6.64909 9.68374C6.59031 9.45995 6.50337 9.25971 6.38826 9.08303C6.08948 8.62602 5.65599 8.39752 5.0878 8.39752C4.58574 8.39752 4.17184 8.58951 3.84611 8.97349C3.73346 9.10541 3.63549 9.25736 3.55222 9.42932C3.52039 9.49057 3.49222 9.55418 3.46773 9.62014C3.45549 9.64605 3.44569 9.67196 3.43834 9.69788C3.43099 9.71672 3.42365 9.73674 3.4163 9.75795C3.31344 10.0665 3.24486 10.2432 3.21058 10.288C3.13895 10.3784 2.99675 10.4275 2.78398 10.4353C2.66051 10.4299 2.57505 10.4043 2.52759 10.3587C2.47126 10.3045 2.4431 10.2055 2.4431 10.0618V7L1.24182 6.5V10.0618C1.24182 10.3233 1.28958 10.5577 1.38509 10.765C1.45612 10.9229 1.55285 11.0607 1.67531 11.1784C1.79776 11.2962 1.94103 11.3893 2.10512 11.4576C2.30293 11.5419 2.52445 11.5875 2.7697 11.5945C2.77531 11.5945 2.78091 11.5947 2.78648 11.5949H2.78651C2.79288 11.5951 2.79923 11.5953 2.80553 11.5952ZM5.55803 10.5813C5.58986 10.4965 5.60578 10.4046 5.60578 10.3056C5.60578 10.2797 5.60456 10.2538 5.60211 10.2279C5.58986 10.0465 5.53476 9.88987 5.4368 9.75795C5.33638 9.62367 5.22005 9.55653 5.0878 9.55653C4.90657 9.55653 4.75717 9.66018 4.63962 9.86749C4.59798 9.93816 4.56002 10.0253 4.52574 10.129C4.51349 10.162 4.50002 10.202 4.48533 10.2491L4.47063 10.3021L4.45594 10.3481C4.59798 10.4658 4.77922 10.5636 4.99963 10.6413C5.18087 10.7026 5.32536 10.7332 5.43312 10.7332C5.47721 10.7332 5.51884 10.6826 5.55803 10.5813Z" fill="#49505D"/>
</svg>
