<svg width="41" height="41" viewBox="0 0 41 41" fill="none" xmlns="http://www.w3.org/2000/svg">
<rect width="41" height="41" rx="20.5" fill="#E54545"/>
<path d="M14.3181 26.16C12.5368 26.16 10.5635 26.0533 8.39813 25.84V23.68C10.7555 23.84 12.5155 23.92 13.6781 23.92C13.9235 23.92 14.1155 23.8507 14.2541 23.712C14.4035 23.5627 14.4781 23.3653 14.4781 23.12V22.48C14.4781 21.84 14.1581 21.52 13.5181 21.52H10.1581V19.28H13.1981C13.8381 19.28 14.1581 18.96 14.1581 18.32V18C14.1581 17.36 13.8381 17.04 13.1981 17.04H8.55813V14.8H13.9981C15.0435 14.8 15.8115 15.04 16.3021 15.52C16.7928 15.9893 17.0381 16.7093 17.0381 17.68C17.0381 18.32 16.8888 18.8427 16.5901 19.248C16.3021 19.6427 15.9181 19.92 15.4381 20.08C16.3021 20.3147 16.8888 20.8907 17.1981 21.808C17.3048 22.1387 17.3581 22.5227 17.3581 22.96V23.12C17.3581 24.1653 17.1128 24.9333 16.6221 25.424C16.1315 25.9147 15.3635 26.16 14.3181 26.16ZM24.0838 26.16C22.3024 26.16 20.3291 26.0533 18.1638 25.84V23.68C20.5211 23.84 22.2811 23.92 23.4438 23.92C23.6891 23.92 23.8811 23.8507 24.0198 23.712C24.1691 23.5627 24.2438 23.3653 24.2438 23.12V22.32C24.2438 21.68 23.9238 21.36 23.2838 21.36H18.6438V14.8H26.3238V17.04H21.5238V19.12H24.0838C25.1291 19.12 25.8971 19.36 26.3878 19.84C26.8784 20.3093 27.1238 21.0293 27.1238 22V23.12C27.1238 24.1653 26.8784 24.9333 26.3878 25.424C25.8971 25.9147 25.1291 26.16 24.0838 26.16ZM29.2615 26.416L28.2375 26L33.3095 15.008L34.3655 15.472L29.2615 26.416ZM33.0855 26.176C32.8295 25.9093 32.6108 25.6853 32.4295 25.504C32.2482 25.3227 32.0242 25.1253 31.7575 24.912L32.8935 23.696C33.1495 23.8987 33.3948 24.1173 33.6295 24.352C33.8642 24.5867 34.0668 24.8107 34.2375 25.024L33.0855 26.176ZM29.9335 17.536C29.6775 17.2693 29.4588 17.0453 29.2775 16.864C29.0962 16.6827 28.8722 16.4853 28.6055 16.272L29.7415 15.056C29.9975 15.2587 30.2428 15.4773 30.4775 15.712C30.7122 15.9467 30.9148 16.1707 31.0855 16.384L29.9335 17.536Z" fill="white"/>
</svg>
